<?xml version="1.0"?>
<svg xmlns="http://www.w3.org/2000/svg" id="Layer_1" data-name="Layer 1" viewBox="0 0 64 64"><title>Dusk Part 3</title><path d="M58.8,24.83l-6.66-1.67a20.47,20.47,0,0,0-1.07-2.55l3.54-5.9a2.9,2.9,0,0,0-.44-3.54L50.84,7.83a2.9,2.9,0,0,0-3.54-.44l-5.9,3.54a20.16,20.16,0,0,0-2.56-1.06L37.17,3.2A2.9,2.9,0,0,0,34.36,1H29.64a2.9,2.9,0,0,0-2.81,2.2L25.16,9.86a20.39,20.39,0,0,0-2.55,1.07L16.7,7.39a2.9,2.9,0,0,0-3.54.44L9.83,11.16a2.9,2.9,0,0,0-.44,3.54l3.54,5.9a20.24,20.24,0,0,0-1.06,2.56L5.2,24.83A2.9,2.9,0,0,0,3,27.64v4.71a2.9,2.9,0,0,0,2.2,2.81l6.66,1.67a20.47,20.47,0,0,0,1.07,2.55L9.39,45.3a2.9,2.9,0,0,0,.44,3.54l3.33,3.33a2.9,2.9,0,0,0,3.54.44l5.9-3.54a20.16,20.16,0,0,0,2.56,1.06l1.67,6.67A2.9,2.9,0,0,0,29.64,59h4.71a2.9,2.9,0,0,0,2.81-2.2l1.67-6.66a20.39,20.39,0,0,0,2.55-1.07l5.9,3.54a2.89,2.89,0,0,0,3.54-.44l3.33-3.33a2.9,2.9,0,0,0,.44-3.54l-3.54-5.9a20.24,20.24,0,0,0,1.06-2.56l6.67-1.67A2.9,2.9,0,0,0,61,32.36V27.64A2.9,2.9,0,0,0,58.8,24.83Z" style="fill:#c2cde7;"/><path d="M52.14,23.16a20.48,20.48,0,0,0-1.07-2.55l3.54-5.9a2.9,2.9,0,0,0-.44-3.54l-.67-.67L12.71,51.29c.62.59,1.26,1.14,1.93,1.67a2.88,2.88,0,0,0,2.06-.35l5.9-3.54a20.16,20.16,0,0,0,2.56,1.06l.74,3L55.1,23.9Z" style="fill:#d3dded;"/><path d="M51.51,8.49,51,8H46.28l-.7.42L10.42,43.58l-1,1.72A2.88,2.88,0,0,0,9,46.91a28.27,28.27,0,0,0,1.77,2.32Z" style="fill:#d3dded;"/><path d="M38.84,9.86l-.74-3L8.9,36.1l3,.74c.11.31.23.63.36.94L39.78,10.22C39.47,10.09,39.15,10,38.84,9.86Z" style="fill:#d3dded;"/><circle cx="32" cy="30" r="13" style="fill:#acb7d0;"/><circle cx="32" cy="30" r="7" style="fill:#f9dd8f;"/><polygon points="32.5 7 33.74 9.26 36 10.5 33.74 11.74 32.5 14 31.26 11.74 29 10.5 31.26 9.26 32.5 7" style="fill:#fff8f8;"/><polygon points="18.42 40 19.27 41.56 20.84 42.42 19.27 43.27 18.42 44.84 17.56 43.27 16 42.42 17.56 41.56 18.42 40" style="fill:#fff8f8;"/><polygon points="46.35 17 46.94 18.07 48 18.65 46.94 19.23 46.35 20.3 45.77 19.23 44.7 18.65 45.77 18.07 46.35 17" style="fill:#fff8f8;"/><rect x="33" y="35" width="30" height="4" style="fill:#ced8ed;"/><rect x="33" y="39" width="30" height="24" style="fill:#8b8e98;"/><path d="M21,31a1,1,0,0,0,0-2H19a1,1,0,0,0,0,2Z" style="fill:#8d6c9f;"/><path d="M23.51,37.07,22.1,38.49a1,1,0,1,0,1.41,1.41l1.41-1.41a1,1,0,0,0-1.41-1.41Z" style="fill:#8d6c9f;"/><path d="M23.51,22.93a1,1,0,0,0,1.41-1.41L23.51,20.1a1,1,0,0,0-1.41,1.41Z" style="fill:#8d6c9f;"/><path d="M22.73,33.75a1,1,0,0,0-1.3-.55l-1.85.75a1,1,0,1,0,.75,1.85L22.18,35A1,1,0,0,0,22.73,33.75Z" style="fill:#8d6c9f;"/><path d="M28.09,39.21a1,1,0,0,0-1.31.53L26,41.58a1,1,0,1,0,1.84.78l.78-1.84A1,1,0,0,0,28.09,39.21Z" style="fill:#8d6c9f;"/><path d="M19.64,25.84l1.84.78a1,1,0,1,0,.78-1.84L20.42,24a1,1,0,1,0-.78,1.84Z" style="fill:#8d6c9f;"/><path d="M29.31,35.37A6,6,0,1,1,38,30q0,.3,0,.58a1,1,0,1,0,2,.19c0-.26,0-.51,0-.78a8,8,0,1,0-11.58,7.16,1,1,0,0,0,.9-1.79Z" style="fill:#8d6c9f;"/><path d="M28,18.64a1,1,0,0,0,.31,0,11.93,11.93,0,0,1,2.12-.48,1,1,0,1,0-.27-2,14,14,0,0,0-2.47.56,1,1,0,0,0,.31,2Z" style="fill:#8d6c9f;"/><circle cx="32" cy="30" r="2" style="fill:#8d6c9f;"/><path d="M57,46H49a1,1,0,0,0,0,2h8a1,1,0,0,0,0-2Z" style="fill:#faefde;"/><path d="M53,54H49a1,1,0,0,0,0,2h4a1,1,0,0,0,0-2Z" style="fill:#faefde;"/><path d="M44.29,44.29,41,47.59l-1.29-1.29a1,1,0,0,0-1.41,1.41l2,2a1,1,0,0,0,1.41,0l4-4a1,1,0,0,0-1.41-1.41Z" style="fill:#faefde;"/><path d="M44.29,52.29,41,55.59l-1.29-1.29a1,1,0,0,0-1.41,1.41l2,2a1,1,0,0,0,1.41,0l4-4a1,1,0,0,0-1.41-1.41Z" style="fill:#faefde;"/><path d="M61.52,34.05A3,3,0,0,0,62,32.44V27.56a3,3,0,0,0-2.27-2.91l-6.89-1.73a21.16,21.16,0,0,0-1.11-2.64l3.66-6.11a3,3,0,0,0-.45-3.66L51.49,7.06a3,3,0,0,0-3.66-.45l-6.11,3.66a21,21,0,0,0-2.65-1.1l-1.72-6.9A3,3,0,0,0,34.44,0H29.56a3,3,0,0,0-2.91,2.27L24.92,9.17a21.18,21.18,0,0,0-2.64,1.11L16.18,6.61a3,3,0,0,0-3.67.45L9.06,10.51a3,3,0,0,0-.45,3.67l3.66,6.11a21,21,0,0,0-1.1,2.64l-6.9,1.72A3,3,0,0,0,2,27.56v4.88a3,3,0,0,0,2.27,2.91l6.89,1.73a21.1,21.1,0,0,0,1.11,2.64L8.61,45.82a3,3,0,0,0,.45,3.67l3.45,3.45a3,3,0,0,0,3.67.45l6.11-3.66a21,21,0,0,0,2.64,1.1l1.72,6.9A3,3,0,0,0,29.56,60H32v1a3,3,0,0,0,3,3H61a3,3,0,0,0,3-3V37A3,3,0,0,0,61.52,34.05ZM62,37v1H34V37a1,1,0,0,1,1-1H61A1,1,0,0,1,62,37ZM29.56,58a1,1,0,0,1-1-.76l-1.72-6.89a2,2,0,0,0-1.3-1.41,19.91,19.91,0,0,1-2.4-1,2,2,0,0,0-1.92.07l-6.11,3.66a1,1,0,0,1-1.22-.15l-3.45-3.45a1,1,0,0,1-.15-1.22L14,40.75a2,2,0,0,0,.07-1.92,20,20,0,0,1-1-2.4,2,2,0,0,0-1.4-1.3l-6.9-1.72a1,1,0,0,1-.76-1V27.56a1,1,0,0,1,.76-1l6.9-1.72a2,2,0,0,0,1.4-1.3,20,20,0,0,1,1-2.4A2,2,0,0,0,14,19.25l-3.66-6.11a1,1,0,0,1,.15-1.22l3.45-3.45a1,1,0,0,1,1.22-.15L21.25,12a2,2,0,0,0,1.92.07,20,20,0,0,1,2.4-1,2,2,0,0,0,1.3-1.4l1.72-6.9a1,1,0,0,1,1-.76h4.88a1,1,0,0,1,1,.76l1.72,6.9a2,2,0,0,0,1.3,1.4,19.89,19.89,0,0,1,2.4,1A2,2,0,0,0,42.75,12l6.11-3.66a1,1,0,0,1,1.22.15l3.45,3.45a1,1,0,0,1,.15,1.22L50,19.25a2,2,0,0,0-.07,1.92,20,20,0,0,1,1,2.4,2,2,0,0,0,1.4,1.3l6.9,1.72a1,1,0,0,1,.76,1v4.88a1,1,0,0,1-.76,1L57,34l-.08,0H45.42A14,14,0,0,0,35.35,16.4a1,1,0,0,0-.48,1.94A12,12,0,0,1,43.3,34H35a3,3,0,0,0-3,3V58ZM61,62H35a1,1,0,0,1-1-1V40H62V61A1,1,0,0,1,61,62Z" style="fill:#8d6c9f;"/></svg>
