<?xml version="1.0"?>
<svg xmlns="http://www.w3.org/2000/svg" id="Layer_1" data-name="Layer 1" viewBox="0 0 64 64"><title>Dusk Part 3</title><path d="M19.24,2.94H42a3,3,0,0,1,3,3v40a3,3,0,0,1-3,3H10a3,3,0,0,1-3-3V15.18a3,3,0,0,1,.88-2.12l9.24-9.24A3,3,0,0,1,19.24,2.94Z" style="fill:#bbdef9;"/><path d="M45,28V5.94a3,3,0,0,0-.29-1.26L7,42.39v3.54a3,3,0,0,0,3,3H24.06Z" style="fill:#cce7fc;"/><path d="M38.06,2.94,7,34v6L43.59,3.41a3,3,0,0,0-.48-.25l-5.05-.22Z" style="fill:#cce7fc;"/><polygon points="19 3 19 15 7 15 19 3" style="fill:#f9e3ae;"/><path d="M29.24,14.94H52a3,3,0,0,1,3,3v40a3,3,0,0,1-3,3H20a3,3,0,0,1-3-3V27.18a3,3,0,0,1,.88-2.12l9.24-9.24A3,3,0,0,1,29.24,14.94Z" style="fill:#faefde;"/><path d="M55,45V21.39L17.25,59.14A3,3,0,0,0,20,60.94H39.06Z" style="fill:#fff7f0;"/><path d="M52.63,15l-1.56-.07h0L17,49v6L54.87,17.13A3,3,0,0,0,52.63,15Z" style="fill:#fff7f0;"/><polygon points="16.85 43.15 45 15 48 15 16.85 46.15 16.85 43.15" style="fill:#fff7f0;"/><polygon points="51.5 23 52.74 25.26 55 26.5 52.74 27.74 51.5 30 50.26 27.74 48 26.5 50.26 25.26 51.5 23" style="fill:#fff;"/><polygon points="36.42 21 37.27 22.56 38.84 23.42 37.27 24.27 36.42 25.84 35.56 24.27 34 23.42 35.56 22.56 36.42 21" style="fill:#fff;"/><polygon points="22.65 52 23.23 53.06 24.3 53.65 23.23 54.23 22.65 55.3 22.07 54.23 21 53.65 22.07 53.06 22.65 52" style="fill:#fff;"/><polygon points="29 15 29 27 17 27 29 15" style="fill:#f9e3ae;"/><path d="M11,40a1,1,0,0,0-1,1v2a1,1,0,0,0,2,0V41A1,1,0,0,0,11,40Z" style="fill:#8d6c9f;"/><path d="M53,14H46V5a3,3,0,0,0-3-3H19.66a5,5,0,0,0-3.54,1.46L7.46,12.12A5,5,0,0,0,6,15.66V47a3,3,0,0,0,3,3h7v9a3,3,0,0,0,3,3H53a3,3,0,0,0,3-3V17A3,3,0,0,0,53,14ZM17.54,4.88A3,3,0,0,1,18,4.5V13a1,1,0,0,1-1,1H8.5a3,3,0,0,1,.38-.46ZM9,48a1,1,0,0,1-1-1V16h9a3,3,0,0,0,3-3V4H43a1,1,0,0,1,1,1v9H29.66a5,5,0,0,0-3.54,1.46l-8.66,8.66A5,5,0,0,0,16,27.66V40a1,1,0,0,0-1,1v2a1,1,0,0,0,1,1v4ZM28,16.5V25a1,1,0,0,1-1,1H18.5a3,3,0,0,1,.38-.46l8.66-8.66A3,3,0,0,1,28,16.5ZM54,59a1,1,0,0,1-1,1H19a1,1,0,0,1-1-1V28h9a3,3,0,0,0,3-3V16H53a1,1,0,0,1,1,1Z" style="fill:#8d6c9f;"/><path d="M47,32H43a1,1,0,0,0,0,2h4a1,1,0,0,0,0-2Z" style="fill:#8d6c9f;"/><path d="M27,34H39a1,1,0,0,0,0-2H27a1,1,0,0,0,0,2Z" style="fill:#8d6c9f;"/><path d="M27,40H43a1,1,0,0,0,0-2H27a1,1,0,0,0,0,2Z" style="fill:#8d6c9f;"/><path d="M46,45a1,1,0,0,0-1-1H27a1,1,0,0,0,0,2H45A1,1,0,0,0,46,45Z" style="fill:#8d6c9f;"/><path d="M21,52a1,1,0,0,0-1,1v2a1,1,0,0,0,2,0V53A1,1,0,0,0,21,52Z" style="fill:#8d6c9f;"/><path d="M26,52a1,1,0,0,0-1,1v2a1,1,0,0,0,2,0V53A1,1,0,0,0,26,52Z" style="fill:#8d6c9f;"/><path d="M31,52a1,1,0,0,0-1,1v2a1,1,0,0,0,2,0V53A1,1,0,0,0,31,52Z" style="fill:#8d6c9f;"/><path d="M36,52a1,1,0,0,0-1,1v2a1,1,0,0,0,2,0V53A1,1,0,0,0,36,52Z" style="fill:#8d6c9f;"/><path d="M41,52a1,1,0,0,0-1,1v2a1,1,0,0,0,2,0V53A1,1,0,0,0,41,52Z" style="fill:#8d6c9f;"/><path d="M46,52a1,1,0,0,0-1,1v2a1,1,0,0,0,2,0V53A1,1,0,0,0,46,52Z" style="fill:#8d6c9f;"/><path d="M51,52a1,1,0,0,0-1,1v2a1,1,0,0,0,2,0V53A1,1,0,0,0,51,52Z" style="fill:#8d6c9f;"/></svg>
