<?xml version="1.0"?>
<svg xmlns="http://www.w3.org/2000/svg" id="Layer_1" data-name="Layer 1" viewBox="0 0 64 64"><title>Dusk Part 2</title><rect x="3" y="9" width="58" height="42" rx="4" ry="4" style="fill:#faefde;"/><polygon points="11 51 11 22 32 37 11 51" style="fill:#efd8be;"/><polygon points="32 28 6 9 58 9 32 28" style="fill:#fff7f0;"/><path d="M31.58,28,7.78,10.51A3,3,0,0,0,3,12.93V47a4,4,0,0,0,4,4h4V22L31.67,37,53,22V51h4a4,4,0,0,0,4-4V12.83a3,3,0,0,0-4.74-2.44Z" style="fill:#ed7899;"/><path d="M57,8H7a5,5,0,0,0-5,5V47a5,5,0,0,0,5,5H57a5,5,0,0,0,5-5V13A5,5,0,0,0,57,8Zm-1.85,2L32.59,26.34a1,1,0,0,1-1.17,0L8.85,10ZM12,48a1,1,0,0,0,1-1V45a1,1,0,0,0-1-1V23.75L30.24,37a3,3,0,0,0,3.52,0L52,23.75V44a1,1,0,0,0-1,1v2a1,1,0,0,0,1,1v2H12Zm48-1a3,3,0,0,1-3,3H54V21.79A1,1,0,0,0,52.41,21L32.59,35.34a1,1,0,0,1-1.17,0L11.59,21a1,1,0,0,0-1.59.81V50H7a3,3,0,0,1-3-3V13a3,3,0,0,1,1.79-2.74L30.24,28a3,3,0,0,0,3.52,0l24.45-17.7A3,3,0,0,1,60,13Z" style="fill:#8d6c9f;"/><path d="M17,44a1,1,0,0,0-1,1v2a1,1,0,0,0,2,0V45A1,1,0,0,0,17,44Z" style="fill:#8d6c9f;"/><path d="M22,44a1,1,0,0,0-1,1v2a1,1,0,0,0,2,0V45A1,1,0,0,0,22,44Z" style="fill:#8d6c9f;"/><path d="M27,44a1,1,0,0,0-1,1v2a1,1,0,0,0,2,0V45A1,1,0,0,0,27,44Z" style="fill:#8d6c9f;"/><path d="M32,44a1,1,0,0,0-1,1v2a1,1,0,0,0,2,0V45A1,1,0,0,0,32,44Z" style="fill:#8d6c9f;"/><path d="M37,44a1,1,0,0,0-1,1v2a1,1,0,0,0,2,0V45A1,1,0,0,0,37,44Z" style="fill:#8d6c9f;"/><path d="M42,44a1,1,0,0,0-1,1v2a1,1,0,0,0,2,0V45A1,1,0,0,0,42,44Z" style="fill:#8d6c9f;"/><path d="M47,44a1,1,0,0,0-1,1v2a1,1,0,0,0,2,0V45A1,1,0,0,0,47,44Z" style="fill:#8d6c9f;"/></svg>
