<?xml version="1.0"?>
<svg xmlns="http://www.w3.org/2000/svg" id="Layer_1" data-name="Layer 1" viewBox="0 0 64 64"><title>Icons8 RSL Colored Part 7</title><circle cx="31" cy="31" r="28" style="fill:#97e0bb;"/><path d="M31,53A22,22,0,1,1,53,31,22,22,0,0,1,31,53Z" style="fill:#72caaf;"/><path d="M15.44,54.28l13-13c4.47,1.41,8.14,1.76,11.69-1.79s6-10,4.61-14.51l-6.24,6.24a2,2,0,0,1-1.93.52l-1.09-.29a8,8,0,0,1-5.66-5.66l-.29-1.09A2,2,0,0,1,30,22.8l6.25-6.25c-4.48-1.42-11,1-14.55,4.6s-3.19,7.21-1.79,11.69L7.16,45.59" style="fill:#c2cde7;"/><path d="M32.3,37.41l4.54,4.54S46.93,34,44.76,25.86L37.63,32s-4.18-.38-6.25-3.09-2-5-1.38-6.11,6.2-6,6.2-6-7.37-4.46-17,7.48l4.64,4.64" style="fill:#d6dff2;"/><path d="M31,2A29,29,0,1,0,60,31,29,29,0,0,0,31,2ZM8.4,45.75,20.62,33.54a1,1,0,0,0,.25-1c-1.38-4.4-1.58-7.56,1.54-10.68,2.76-2.76,7.8-5,11.81-4.69l-4.92,4.92a3,3,0,0,0-.78,2.9l.29,1.09a9,9,0,0,0,6.36,6.36l1.09.29a3,3,0,0,0,2.9-.78l4.9-4.9c.31,4-1.95,9-4.69,11.76-3.12,3.11-6.28,2.92-10.68,1.54a1,1,0,0,0-1,.25L15.33,53A27.21,27.21,0,0,1,8.4,45.75ZM31,58a26.84,26.84,0,0,1-14-3.9L28.68,42.45c4.61,1.37,8.46,1.44,12.11-2.21s6.46-10.44,4.86-15.52A1,1,0,0,0,44,24.31l-6.24,6.24a1,1,0,0,1-1,.26l-1.09-.29a7,7,0,0,1-4.95-5l-.29-1.09a1,1,0,0,1,.26-1L37,17.25a1,1,0,0,0-.4-1.66C31.46,14,24.64,16.79,21,20.44s-3.58,7.5-2.21,12.11l-7,7A21,21,0,0,1,34.34,10.27a1,1,0,1,0,.32-2A23,23,0,0,0,10.31,41l-3,3A27,27,0,1,1,31,58Z" style="fill:#8d6c9f;"/><path d="M31,49a1,1,0,0,0-1,1v2a1,1,0,0,0,2,0V50A1,1,0,0,0,31,49Z" style="fill:#8d6c9f;"/><path d="M37,49.08a1,1,0,0,0-1.93.52l.52,1.93A1,1,0,0,0,37.53,51Z" style="fill:#8d6c9f;"/><path d="M41.62,46.89a1,1,0,1,0-1.73,1l1,1.73a1,1,0,1,0,1.73-1Z" style="fill:#8d6c9f;"/><path d="M26.21,48.37a1,1,0,0,0-1.22.71L24.47,51a1,1,0,1,0,1.93.52l.52-1.93A1,1,0,0,0,26.21,48.37Z" style="fill:#8d6c9f;"/><path d="M41.35,10.46a23,23,0,0,0-2.3-1,1,1,0,1,0-.7,1.87,21,21,0,0,1,2.1.92,1,1,0,0,0,.9-1.79Z" style="fill:#8d6c9f;"/><path d="M47.26,14.74a23.19,23.19,0,0,0-2.09-1.86,1,1,0,0,0-1.23,1.57,21.26,21.26,0,0,1,1.91,1.7,21,21,0,0,1,0,29.7,1,1,0,1,0,1.41,1.41A23,23,0,0,0,47.26,14.74Z" style="fill:#8d6c9f;"/><path d="M30.89,37.41A1,1,0,1,0,32.3,36l-7.07-7.07a1,1,0,0,0-1.41,1.41Z" style="fill:#8d6c9f;"/></svg>
