<?xml version="1.0"?>
<svg xmlns="http://www.w3.org/2000/svg" viewBox="0 0 24 24">
    <path d="M 12 1.90625 L 2.59375 6.09375 L 3.40625 7.90625 L 12 4.09375 L 20.59375 7.90625 L 21.40625 6.09375 L 12 1.90625 z M 8 8 C 5.149 8 3 9.29 3 11 L 3 22 L 21 22 L 21 11 C 21 9.29 18.851 8 16 8 C 14.328 8 12.897 8.44425 12 9.15625 C 11.103 8.44425 9.672 8 8 8 z M 8 10 C 9.936 10 11 10.751 11 11 L 11 19.6875 C 10.269 19.2695 9.206 19 8 19 C 6.794 19 5.731 19.2695 5 19.6875 L 5 11 C 5 10.751 6.064 10 8 10 z M 16 10 C 17.936 10 19 10.751 19 11 L 19 19.6875 C 18.269 19.2695 17.206 19 16 19 C 14.794 19 13.731 19.2695 13 19.6875 L 13 11 C 13 10.751 14.064 10 16 10 z"/>
</svg>
