<?xml version="1.0"?>
<svg xmlns="http://www.w3.org/2000/svg" id="Layer_1" data-name="Layer 1" viewBox="0 0 64 64"><title>Dusk Part 1</title><rect x="1" y="5" width="62" height="52" rx="3" ry="3" style="fill:#c2cde7;"/><path d="M1,35V54a3,3,0,0,0,3,3H60a3,3,0,0,0,3-3V35a4,4,0,0,0-4-4H5A4,4,0,0,0,1,35Z" style="fill:#acb7d0;"/><rect x="10.5" y="10.5" width="47" height="40" rx="3" ry="3" style="fill:#d3e0e8;"/><polygon points="34.67 51 20 51 51.33 11 55 11 57 12 57 22.37 34.67 51" style="fill:#dce9f0;"/><polygon points="11 50 10.5 45.87 38 11 45 11 13.46 51 11 50" style="fill:#dce9f0;"/><polygon points="11 34.58 29.67 11 31 11 11 36.26 11 34.58" style="fill:#dce9f0;"/><rect x="37" y="37" width="4" height="8" style="fill:#ffeb9b;"/><rect x="27" y="27" width="4" height="8" style="fill:#ffeb9b;"/><rect x="41" y="17" width="4" height="8" style="fill:#ffeb9b;"/><path d="M61,4H3A3,3,0,0,0,0,7V55a3,3,0,0,0,3,3H61a3,3,0,0,0,3-3V7A3,3,0,0,0,61,4Zm1,51a1,1,0,0,1-1,1H3a1,1,0,0,1-1-1V7A1,1,0,0,1,3,6H61a1,1,0,0,1,1,1Z" style="fill:#8d6c9f;"/><path d="M56,10H12a2,2,0,0,0-2,2V50a2,2,0,0,0,2,2H56a2,2,0,0,0,2-2V12A2,2,0,0,0,56,10ZM12,50V12H56V50Z" style="fill:#8d6c9f;"/><path d="M51,20H46V18a2,2,0,0,0-2-2H42a2,2,0,0,0-2,2v6a2,2,0,0,0,2,2h2a2,2,0,0,0,2-2V22h5a1,1,0,0,0,0-2Zm-7,4H42V18h2Z" style="fill:#8d6c9f;"/><path d="M19,22H37a1,1,0,0,0,0-2H19a1,1,0,0,0,0,2Z" style="fill:#8d6c9f;"/><path d="M19,32h4a1,1,0,0,0,0-2H19a1,1,0,0,0,0,2Z" style="fill:#8d6c9f;"/><path d="M51,30H32V28a2,2,0,0,0-2-2H28a2,2,0,0,0-2,2v6a2,2,0,0,0,2,2h2a2,2,0,0,0,2-2V32H51a1,1,0,0,0,0-2ZM30,34H28V28h2Z" style="fill:#8d6c9f;"/><path d="M51,40H42V38a2,2,0,0,0-2-2H38a2,2,0,0,0-2,2v6a2,2,0,0,0,2,2h2a2,2,0,0,0,2-2V42h9a1,1,0,0,0,0-2ZM40,44H38V38h2Z" style="fill:#8d6c9f;"/><path d="M33,40H19a1,1,0,0,0,0,2H33a1,1,0,0,0,0-2Z" style="fill:#8d6c9f;"/><path d="M7,15H5a1,1,0,0,0,0,2H7a1,1,0,0,0,0-2Z" style="fill:#8d6c9f;"/><path d="M7,10H5a1,1,0,0,0,0,2H7a1,1,0,0,0,0-2Z" style="fill:#8d6c9f;"/><path d="M7,50H5a1,1,0,0,0,0,2H7a1,1,0,0,0,0-2Z" style="fill:#8d6c9f;"/><path d="M7,20H5a1,1,0,0,0,0,2H7a1,1,0,0,0,0-2Z" style="fill:#8d6c9f;"/><path d="M7,25H5a1,1,0,0,0,0,2H7a1,1,0,0,0,0-2Z" style="fill:#8d6c9f;"/><path d="M7,30H5a1,1,0,0,0,0,2H7a1,1,0,0,0,0-2Z" style="fill:#8d6c9f;"/><path d="M7,35H5a1,1,0,0,0,0,2H7a1,1,0,0,0,0-2Z" style="fill:#8d6c9f;"/><path d="M7,40H5a1,1,0,0,0,0,2H7a1,1,0,0,0,0-2Z" style="fill:#8d6c9f;"/><path d="M7,45H5a1,1,0,0,0,0,2H7a1,1,0,0,0,0-2Z" style="fill:#8d6c9f;"/></svg>
