<svg xmlns="http://www.w3.org/2000/svg"  viewBox="0 0 100 100" width="100px" height="100px"><path fill="#e85654" d="M87.574,32.465c-0.77-4.477-4.399-7.902-8.922-8.325C71.569,23.479,62.224,23,50,23	s-21.569,0.479-28.651,1.141c-4.523,0.422-8.153,3.848-8.922,8.325C11.59,37.333,11,43.181,11,50s0.59,12.667,1.426,17.535	c0.77,4.477,4.399,7.902,8.922,8.325C28.431,76.521,37.776,77,50,77s21.569-0.479,28.651-1.141c4.523-0.422,8.153-3.848,8.922-8.325	C88.41,62.667,89,56.819,89,50S88.41,37.333,87.574,32.465z"/><path fill="#fefdef" d="M42.5,61.5l20-11.5l-20-11.5V61.5z"/><path fill="#1f212b" d="M50,78c-10.941,0-20.612-0.385-28.745-1.145c-4.931-0.46-8.967-4.223-9.814-9.15	C10.485,62.141,10,56.184,10,50s0.485-12.141,1.441-17.705c0.847-4.927,4.883-8.69,9.815-9.15C29.388,22.385,39.059,22,50,22	s20.612,0.385,28.745,1.145c4.931,0.46,8.967,4.224,9.814,9.15l0,0C89.515,37.856,90,43.813,90,50s-0.485,12.144-1.441,17.705	c-0.847,4.927-4.883,8.69-9.815,9.15C70.612,77.615,60.941,78,50,78z M50,24c-10.879,0-20.488,0.382-28.559,1.136	c-4.033,0.377-7.335,3.46-8.03,7.498C12.475,38.086,12,43.929,12,50s0.475,11.914,1.412,17.366c0.695,4.038,3.997,7.121,8.03,7.498	C29.512,75.618,39.121,76,50,76s20.488-0.382,28.559-1.136c4.034-0.377,7.335-3.46,8.03-7.498C87.525,61.917,88,56.074,88,50	s-0.475-11.917-1.412-17.366l0,0c-0.694-4.038-3.996-7.121-8.03-7.498C70.488,24.382,60.879,24,50,24z"/><path fill="#1f212b" d="M42.5,62c-0.086,0-0.173-0.022-0.25-0.067C42.095,61.843,42,61.679,42,61.5v-23	c0-0.179,0.095-0.343,0.25-0.433c0.155-0.089,0.345-0.09,0.5-0.001l20,11.5C62.904,49.656,63,49.821,63,50s-0.096,0.344-0.251,0.434	l-20,11.5C42.672,61.978,42.586,62,42.5,62z M43,39.364v21.271L61.497,50L43,39.364z"/><path fill="#1f212b" d="M22.5,29.058c-0.256,0-0.474-0.195-0.498-0.456c-0.024-0.275,0.178-0.518,0.454-0.542	C30.307,27.356,39.574,27,50,27c5.443,0,10.665,0.101,15.521,0.301c0.276,0.011,0.49,0.244,0.479,0.52	c-0.011,0.275-0.261,0.496-0.52,0.479C60.638,28.101,55.43,28,50,28c-10.396,0-19.634,0.355-27.456,1.056	C22.529,29.058,22.514,29.058,22.5,29.058z"/><path fill="#1f212b" d="M77.5,29.058c-0.015,0-0.03,0-0.045-0.002l-0.997-0.082c-0.275-0.023-0.479-0.265-0.456-0.54	c0.023-0.275,0.271-0.483,0.54-0.456l1.003,0.082c0.275,0.025,0.478,0.268,0.453,0.543C77.975,28.863,77.756,29.058,77.5,29.058z"/><path fill="#1f212b" d="M73.5,28.743c-0.012,0-0.024,0-0.036-0.001c-1.614-0.114-3.272-0.218-4.99-0.305	c-0.276-0.014-0.488-0.249-0.474-0.525c0.014-0.276,0.247-0.493,0.525-0.474c1.725,0.088,3.39,0.192,5.01,0.307	c0.276,0.02,0.483,0.258,0.463,0.534C73.98,28.542,73.761,28.743,73.5,28.743z"/></svg>