<?xml version="1.0"?>
<svg xmlns="http://www.w3.org/2000/svg" id="Layer_1" data-name="Layer 1" viewBox="0 0 64 64"><title>Dusk Part 3</title><path d="M1,16V45c0,5.52,11.19,10,25,10s25-4.48,25-10V16Z" style="fill:#c2cde7;"/><path d="M8,16H1V45c0,2.69,2.67,5.14,7,6.94Z" style="fill:#ced8ed;"/><path d="M36,16V54.17C44.83,52.62,51,49.1,51,45V16Z" style="fill:#b5c4e0;"/><ellipse cx="26" cy="15" rx="25" ry="10" style="fill:#ced8ed;"/><path d="M63,16.24l-3.83,1a1.08,1.08,0,0,0-.77.72,9.82,9.82,0,0,1-.69,1.65,1.08,1.08,0,0,0,0,1.06l2,3.39L58,25.78l-3.39-2a1.08,1.08,0,0,0-1.06,0,9.82,9.82,0,0,1-1.65.69,1.08,1.08,0,0,0-.72.77l-1,3.83H47.76l-1-3.83a1.08,1.08,0,0,0-.72-.77,9.82,9.82,0,0,1-1.65-.69,1.07,1.07,0,0,0-1.06,0l-3.39,2L38.22,24l2-3.39a1.08,1.08,0,0,0,0-1.06,9.82,9.82,0,0,1-.69-1.65,1.08,1.08,0,0,0-.77-.72l-3.83-1V13.76l3.83-1a1.08,1.08,0,0,0,.77-.72,9.82,9.82,0,0,1,.69-1.65,1.08,1.08,0,0,0,0-1.06L38.22,6,40,4.22l3.39,2a1.07,1.07,0,0,0,1.06,0,9.82,9.82,0,0,1,1.65-.69,1.08,1.08,0,0,0,.72-.77l1-3.83h2.48l1,3.83a1.08,1.08,0,0,0,.72.77,9.82,9.82,0,0,1,1.65.69,1.08,1.08,0,0,0,1.06,0l3.39-2L59.78,6l-2,3.39a1.08,1.08,0,0,0,0,1.06,9.82,9.82,0,0,1,.69,1.65,1.08,1.08,0,0,0,.77.72l3.83,1Z" style="fill:#f9dd8f;"/><circle cx="49" cy="15" r="4" style="fill:#faefde;"/><path d="M26,42a1,1,0,0,0-1,1v2a1,1,0,0,0,2,0V43A1,1,0,0,0,26,42Z" style="fill:#8d6c9f;"/><path d="M31,41.8a1,1,0,0,0-1,1v2a1,1,0,0,0,2,0v-2A1,1,0,0,0,31,41.8Z" style="fill:#8d6c9f;"/><path d="M36,41.1a1,1,0,0,0-1,1v2a1,1,0,1,0,2,0v-2A1,1,0,0,0,36,41.1Z" style="fill:#8d6c9f;"/><path d="M41,40a1,1,0,0,0-1,1v2a1,1,0,0,0,2,0V41A1,1,0,0,0,41,40Z" style="fill:#8d6c9f;"/><path d="M63.24,12.1l-3.79-.95q-.15-.41-.34-.82l2-3.35A1,1,0,0,0,61,5.76L58.24,3A1,1,0,0,0,57,2.88l-3.35,2q-.41-.19-.82-.34L51.9.76a1,1,0,0,0-1-.76H47.07a1,1,0,0,0-1,.76l-.95,3.79q-.41.15-.82.34L41,2.88A1,1,0,0,0,39.76,3L37.64,5.15A57.48,57.48,0,0,0,26,4C11.42,4,0,8.83,0,15V45c0,6.17,11.42,11,26,11s26-4.83,26-11V28.84l.85-3.39q.41-.15.82-.34l3.35,2A1,1,0,0,0,58.24,27L61,24.24A1,1,0,0,0,61.12,23l-2-3.35q.19-.41.34-.82l3.79-.95a1,1,0,0,0,.76-1V13.07A1,1,0,0,0,63.24,12.1ZM26,6A56.55,56.55,0,0,1,36.89,7l2,3.33q-.19.41-.34.82l-3.79.95a1,1,0,0,0-.76,1v3.86a1,1,0,0,0,.76,1l3.79.95q.15.41.34.82l-2,3.33A56.55,56.55,0,0,1,26,24C11.64,24,2,19.35,2,15S11.64,6,26,6ZM2,19.31C5.89,23.28,15.05,26,26,26a57.48,57.48,0,0,0,11.64-1.15L39.76,27a1,1,0,0,0,1.22.15l3.35-2q.41.19.82.34l.95,3.79a1,1,0,0,0,.24.42C42.28,32.13,35.09,34,26,34,11.64,34,2,29.35,2,25ZM50,45c0,4.35-9.64,9-24,9S2,49.35,2,45V39.29c3.21,3.3,10.08,5.78,18.86,6.5h.08a1,1,0,0,0,.08-2C10.18,42.91,2,39.12,2,35V29.31C5.89,33.28,15.05,36,26,36c10.29,0,19-2.41,23.23-6H50v5c0,1.73-1.53,3.52-4.32,5a1,1,0,1,0,1,1.76A14.09,14.09,0,0,0,50,39.34ZM62,16.15,58.44,17a1,1,0,0,0-.71.67,9.12,9.12,0,0,1-.64,1.53,1,1,0,0,0,0,1L59,23.38,57.38,25l-3.15-1.89a1,1,0,0,0-1,0,9.12,9.12,0,0,1-1.53.64,1,1,0,0,0-.67.71L50.15,28h-2.3L47,24.44a1,1,0,0,0-.67-.71,9.12,9.12,0,0,1-1.53-.64,1,1,0,0,0-1,0L40.62,25,39,23.38l1.89-3.15a1,1,0,0,0,0-1,9.12,9.12,0,0,1-.64-1.53,1,1,0,0,0-.71-.67L36,16.15v-2.3L39.56,13a1,1,0,0,0,.71-.67,9.12,9.12,0,0,1,.64-1.53,1,1,0,0,0,0-1L39,6.62,40.62,5l3.15,1.89a1,1,0,0,0,1,0,9.12,9.12,0,0,1,1.53-.64A1,1,0,0,0,47,5.56L47.85,2h2.3L51,5.56a1,1,0,0,0,.67.71,9.12,9.12,0,0,1,1.53.64,1,1,0,0,0,1,0L57.38,5,59,6.62,57.11,9.77a1,1,0,0,0,0,1,9.12,9.12,0,0,1,.64,1.53,1,1,0,0,0,.71.67l3.56.89Z" style="fill:#8d6c9f;"/><path d="M49,10a5,5,0,1,0,5,5A5,5,0,0,0,49,10Zm0,8a3,3,0,1,1,3-3A3,3,0,0,1,49,18Z" style="fill:#8d6c9f;"/><path d="M27.11,10c.94,0,1.9.06,2.83.12H30a1,1,0,0,0,.07-2c-1-.07-2-.11-2.93-.12h0a1,1,0,0,0,0,2Z" style="fill:#8d6c9f;"/><path d="M14.18,11.3a1,1,0,0,0,.24,0,45.32,45.32,0,0,1,8.31-1.18A1,1,0,0,0,23.68,9a1,1,0,0,0-1.05-.94,47.23,47.23,0,0,0-8.69,1.24,1,1,0,0,0,.24,2Z" style="fill:#8d6c9f;"/></svg>
