<?xml version="1.0" encoding="utf-8"?>
<!-- Generator: Adobe Illustrator 21.1.0, SVG Export Plug-In . SVG Version: 6.00 Build 0)  -->
<svg xmlns="http://www.w3.org/2000/svg" xmlns:xlink="http://www.w3.org/1999/xlink" version="1.1" x="0px" y="0px" viewBox="0 0 64 64" style="enable-background:new 0 0 64 64;" xml:space="preserve">
<style type="text/css">
	.st0{fill:#C2CDE7;}
	.st1{fill:#ACB7D0;}
	.st2{fill:#D6DFF2;}
	.st3{fill:#C5E4FA;}
	.st4{fill:#8D6C9F;}
	.st5{fill:#E3F2FF;}
	.st6{fill:#72CAAF;}
	.st7{fill:#ED7899;}
	.st8{fill:#85CBF8;}
	.st9{fill:#BBDEF9;}
	.st10{fill:#F9E3AE;}
	.st11{fill:#97E0BB;}
	.st12{fill:#CDA1A7;}
	.st13{fill:#D3A9B0;}
	.st14{fill:#C4939C;}
	.st15{fill:#ACE3FF;}
	.st16{fill:#F3F3F3;}
	.st17{fill:#D2EDFF;}
	.st18{fill:#F6D397;}
	.st19{fill:#CED9ED;}
	.st20{fill:#FFF8F8;}
	.st21{fill:#DEF0FF;}
	.st22{fill:#FFFFFF;}
	.st23{fill:#E0678F;}
	.st24{fill:#F994B3;}
	.st25{fill:#F5C872;}
	.st26{fill:#F9DD8F;}
	.st27{fill:#FAEFDE;}
	.st28{fill:#FFEB9B;}
	.st29{fill:#F75F83;}
	.st30{fill:#DADCEC;}
	.st31{fill:#F6445C;}
	.st32{fill:#EFD8BE;}
	.st33{fill:#FFEFB8;}
	.st34{fill:#DCE5F5;}
	.st35{fill:#FEE8B6;}
	.st36{fill:#5DBC9D;}
	.st37{fill:#B5C4E0;}
	.st38{fill:#C7D0E5;}
	.st39{fill:#FFF6DF;}
	.st40{fill:#6FC6F0;}
	.st41{fill:#CFD9ED;}
	.st42{fill:#9FDDFF;}
	.st43{fill:#CED8ED;}
	.st44{fill:#B8C2DD;}
	.st45{fill:#BFD2DF;}
	.st46{fill:#97CBE8;}
	.st47{fill:#869DB1;}
	.st48{fill:#FFF4D2;}
	.st49{fill:#7C527C;}
	.st50{fill:#D5E0F3;}
	.st51{fill:#FFF7F0;}
	.st52{fill:#A0AECB;}
	.st53{fill:#DEB4BA;}
	.st54{fill:#AED3ED;}
	.st55{fill:#FADB6F;}
	.st56{fill:#9CB0C3;}
	.st57{fill:#D3E0E8;}
	.st58{fill:#DCE9F0;}
	.st59{fill:#FFAAA4;}
	.st60{fill:#96D7F9;}
	.st61{fill:#8B8E98;}
	.st62{fill:#FEDAA4;}
	.st63{fill:#EB9697;}
	.st64{fill:#A9A7AE;}
	.st65{fill:#A5BAC6;}
	.st66{fill:#98C77C;}
</style>
<g id="_x35_0_Air_Conditioner_Climete_Cooler_House_Interior_Environment">
</g>
<g id="_x34_9_Thermometer_Heater_Climate_Control_House_Home">
</g>
<g id="_x34_8_Plan_Blueprint_Apartment_Home_House_Flat_Interior">
</g>
<g id="_x34_7_Plant_Pot_Green_Interior_Home_House">
</g>
<g id="_x34_6_Washing_Machine_Laundry_Bathroom_Interior_Home_House">
</g>
<g id="_x34_5_Radiator_Heat_Climate_Warm_Interior_House_Home">
</g>
<g id="_x34_4_Toaster_Bread_Electronic_Device_Kitchen_House">
</g>
<g id="_x34_3_Lamp_LED_Light_Interior_Home_House">
</g>
<g id="_x34_2_Window_Glass_Interior_Exterior_House_Home">
</g>
<g id="_x34_1_Chair_Armchair_Lounge_Furniture_House_Interior">
</g>
<g id="_x34_0_Image_Photo_Instant_Polaroid_Frames_Gallery">
</g>
<g id="_x33_9_Polaroid_Photocamera_Vintage_Photo_Image_Instant">
</g>
<g id="_x33_8_Printer_Print_Paper_Photo_Ink_Color_Polygraphy">
</g>
<g id="_x33_7_Memory_Card_Stick_Data_Files_Flash_Drive">
</g>
<g id="_x33_6_Image_Photo_Gallery_Slideshow_Landscape">
</g>
<g id="_x33_5_Film_Tape_Photo_Frame_Image">
</g>
<g id="_x33_4_Film_Movie_Photo_Image_Slideshow_Projection_1_">
</g>
<g id="_x33_3_Photo_Photocamera_Lens_Image_Gallery_Shot">
</g>
<g id="_x33_2_Crop_Tool_Photo_Frame_Image">
</g>
<g id="_x33_1_Video_Camera_Photo_Movie_Film">
</g>
<g id="_x33_0_Radiator_Cooler_Heater_Pipes_Antifreeze">
</g>
<g id="_x32_9_Freshener_Spruce_Needles_Smell_Clean">
</g>
<g id="_x32_8_Jerrycan_Can_Gasoline_Fuel_Oil_Tank">
</g>
<g id="_x32_7_Brake_Disk_Car_Part_Automotive_Wheel">
</g>
<g id="_x32_6_Parking_Garage_Place_Car_Automotive_Space">
</g>
<g id="_x32_5_Drive_Car_Transmission_Selector_Gearbox_Shifter">
</g>
<g id="_x32_4_Car_Door_Automotive_Handle_Window">
</g>
<g id="_x32_3_Steering_Wheel_Car_Automotive_Helm_Rudder">
</g>
<g id="_x32_2_Battery_Electricity_Automotive_Charge">
</g>
<g id="_x32_1_Vehicle_Car_Truck_Automobile_Cargo">
</g>
<g id="_x32_0_Directory_Office_Folder_File_Paper">
	<g>
		<path class="st27" d="M57,55H6c-1.7,0-3-1.3-3-3V14c0-1.7,1.3-3,3-3h15l9,6h24c1.7,0,3,1.3,3,3V55z"/>
		<path class="st51" d="M6,11h16l7,7H3v-4C3,12.3,4.3,11,6,11z"/>
		<path class="st12" d="M60,55h-3V21h4c1.1,0,2,0.9,2,2v29C63,53.7,61.7,55,60,55z"/>
		<path class="st32" d="M57,55H6c-1.7,0-3-1.3-3-3v-7h54V55z"/>
		<g>
			<path class="st29" d="M31,24h-6c-0.6,0-1,0.4-1,1s0.4,1,1,1h6c0.6,0,1-0.4,1-1S31.6,24,31,24z"/>
			<path class="st29" d="M11,26h10c0.6,0,1-0.4,1-1s-0.4-1-1-1H11c-0.6,0-1,0.4-1,1S10.4,26,11,26z"/>
			<path class="st29" d="M15,28h-4c-0.6,0-1,0.4-1,1s0.4,1,1,1h4c0.6,0,1-0.4,1-1S15.6,28,15,28z"/>
			<path class="st29" d="M26,28h-7c-0.6,0-1,0.4-1,1s0.4,1,1,1h7c0.6,0,1-0.4,1-1S26.6,28,26,28z"/>
			<path class="st4" d="M53,44h-4c-0.6,0-1,0.4-1,1s0.4,1,1,1h4c0.6,0,1-0.4,1-1S53.6,44,53,44z"/>
			<path class="st4" d="M61,20h-3v-1c0-1.7-1.3-3-3-3H29.7c-0.8,0-1.5-0.3-2.1-0.9l-3.7-3.7c-0.9-0.9-2.2-1.4-3.5-1.4H5     c-1.7,0-3,1.3-3,3v39c0,2.2,1.8,4,4,4h53h1c2.2,0,4-1.8,4-4V23C64,21.3,62.7,20,61,20z M6,54c-1.1,0-2-0.9-2-2v-6h41     c0.6,0,1-0.4,1-1s-0.4-1-1-1H4V13c0-0.6,0.4-1,1-1h15.4c0.8,0,1.5,0.3,2.1,0.9l3.7,3.7c0.9,0.9,2.2,1.4,3.5,1.4H55     c0.6,0,1,0.4,1,1v33c0,0.6,0.2,1.3,0.6,2H6z M62,52c0,1.1-0.9,2-2,2c-1.2,0-2-1.4-2-2V22h3c0.6,0,1,0.4,1,1V52z"/>
			<path class="st4" d="M7,48c-0.6,0-1,0.4-1,1v2c0,0.6,0.4,1,1,1s1-0.4,1-1v-2C8,48.4,7.6,48,7,48z"/>
			<path class="st4" d="M12,48c-0.6,0-1,0.4-1,1v2c0,0.6,0.4,1,1,1s1-0.4,1-1v-2C13,48.4,12.6,48,12,48z"/>
			<path class="st4" d="M17,48c-0.6,0-1,0.4-1,1v2c0,0.6,0.4,1,1,1s1-0.4,1-1v-2C18,48.4,17.6,48,17,48z"/>
			<path class="st4" d="M22,48c-0.6,0-1,0.4-1,1v2c0,0.6,0.4,1,1,1s1-0.4,1-1v-2C23,48.4,22.6,48,22,48z"/>
			<path class="st4" d="M27,48c-0.6,0-1,0.4-1,1v2c0,0.6,0.4,1,1,1s1-0.4,1-1v-2C28,48.4,27.6,48,27,48z"/>
			<path class="st4" d="M32,48c-0.6,0-1,0.4-1,1v2c0,0.6,0.4,1,1,1s1-0.4,1-1v-2C33,48.4,32.6,48,32,48z"/>
			<path class="st4" d="M37,48c-0.6,0-1,0.4-1,1v2c0,0.6,0.4,1,1,1s1-0.4,1-1v-2C38,48.4,37.6,48,37,48z"/>
			<path class="st4" d="M42,48c-0.6,0-1,0.4-1,1v2c0,0.6,0.4,1,1,1s1-0.4,1-1v-2C43,48.4,42.6,48,42,48z"/>
			<path class="st4" d="M47,48c-0.6,0-1,0.4-1,1v2c0,0.6,0.4,1,1,1s1-0.4,1-1v-2C48,48.4,47.6,48,47,48z"/>
			<path class="st4" d="M52,48c-0.6,0-1,0.4-1,1v2c0,0.6,0.4,1,1,1s1-0.4,1-1v-2C53,48.4,52.6,48,52,48z"/>
		</g>
	</g>
</g>
<g id="_x31_9_Office_Home_Building_Work_House">
</g>
<g id="_x31_8_Aim_Circle_Arrow_Office_Bow">
</g>
<g id="_x31_7_Trash_Delete_Garbage_Basket_File_Waste">
</g>
<g id="_x31_6_Display_Chart_Graph_Computer_Equalizer">
</g>
<g id="_x31_5_Presentation_Graph_Keynote_Chart_Screen_Whiteboard_Diagram">
</g>
<g id="_x31_4_Mail_Stamp_Postmark_Address_Message">
</g>
<g id="_x31_3_Inbox_Box_Paper_Office_Mail_Incoming_Archive">
</g>
<g id="_x31_2_Office_Coffee_Cup_Tea_Hot_Drink">
</g>
<g id="_x31_1_Paper_Shredder_Office_Recycle_Destruction">
</g>
<g id="_x31_0_Bag_Shopping_Cart_Store_Sale_Shop">
</g>
<g id="_x30_9_Calculator_Numbers_Math_Finance_Plus_Multiplication">
</g>
<g id="_x30_8_Present_Sale_Discount_Box_Gift">
</g>
<g id="_x30_7_Wallet_Money_Cash_Dollar_Deposit">
</g>
<g id="_x30_6_Coupon_Ticket_Percent_Sale_Discount">
</g>
<g id="_x30_5_Safe_Money_Deposit_Bank_Account">
</g>
<g id="_x30_4_Shopping_Cart_Bag_Store_Shop_Commerce">
</g>
<g id="_x30_3_Visa_Mastercard_Credit_Card_Plastic_Transaction_Money">
</g>
<g id="_x30_2_Bill_Payment_Money_Finance_Paper_Dollar_Currency">
</g>
<g id="_x30_1_Money_Dollar_Banknote_Bank_Currency_Finance">
</g>
</svg>
