<?xml version="1.0" encoding="UTF-8" standalone="no"?>
<!-- Created with Inkscape (http://www.inkscape.org/) -->

<svg
   xmlns:dc="http://purl.org/dc/elements/1.1/"
   xmlns:cc="http://creativecommons.org/ns#"
   xmlns:rdf="http://www.w3.org/1999/02/22-rdf-syntax-ns#"
   xmlns:svg="http://www.w3.org/2000/svg"
   xmlns="http://www.w3.org/2000/svg"
   xmlns:sodipodi="http://sodipodi.sourceforge.net/DTD/sodipodi-0.dtd"
   xmlns:inkscape="http://www.inkscape.org/namespaces/inkscape"
   width="512mm"
   height="512mm"
   viewBox="0 0 512 512"
   version="1.1"
   id="svg1128"
   inkscape:version="0.92.3 (2405546, 2018-03-11)"
   sodipodi:docname="pencils.svg">
  <defs
     id="defs1122" />
  <sodipodi:namedview
     id="base"
     pagecolor="#ffffff"
     bordercolor="#666666"
     borderopacity="1.0"
     inkscape:pageopacity="0.0"
     inkscape:pageshadow="2"
     inkscape:zoom="0.36"
     inkscape:cx="396.85039"
     inkscape:cy="1116.8154"
     inkscape:document-units="mm"
     inkscape:current-layer="layer1"
     showgrid="false"
     inkscape:window-width="1853"
     inkscape:window-height="1025"
     inkscape:window-x="67"
     inkscape:window-y="27"
     inkscape:window-maximized="1" />
  <metadata
     id="metadata1125">
    <rdf:RDF>
      <cc:Work
         rdf:about="">
        <dc:format>image/svg+xml</dc:format>
        <dc:type
           rdf:resource="http://purl.org/dc/dcmitype/StillImage" />
        <dc:title></dc:title>
      </cc:Work>
    </rdf:RDF>
  </metadata>
  <g
     inkscape:label="Capa 1"
     inkscape:groupmode="layer"
     id="layer1"
     transform="translate(0,215)">
    <g
       id="g2627"
       transform="matrix(10.70052,0,0,10.70052,-1550.3809,952.66272)">
      <g
         transform="matrix(0.35277777,0,0,-0.35277777,159.16157,-84.417483)"
         id="g966">
        <path
           inkscape:connector-curvature="0"
           id="path968"
           style="fill:#e0e0e0;fill-opacity:1;fill-rule:nonzero;stroke:none"
           d="m 0,0 v -20.85 c -8.61,0.08 -15.77,2.05 -20,3.86 V 3.71 C -14.4,1.52 -6.75,0.07 0,0" />
      </g>
      <path
         inkscape:connector-curvature="0"
         id="path970"
         style="fill:#e0e0e0;fill-opacity:1;fill-rule:nonzero;stroke:none;stroke-width:0.35277775"
         d="m 178.91713,-79.884263 h -5.99722 v -2.46944 h 5.99722 z" />
      <g
         transform="matrix(0.35277777,0,0,-0.35277777,152.4588,-96.817593)"
         id="g972">
        <path
           inkscape:connector-curvature="0"
           id="path974"
           style="fill:none;stroke:#ff7415;stroke-width:4;stroke-linecap:butt;stroke-linejoin:miter;stroke-miterlimit:10;stroke-dasharray:none;stroke-opacity:1"
           d="M 0,0 H 14" />
      </g>
      <g
         transform="matrix(0.35277777,0,0,-0.35277777,154.92824,-96.817593)"
         id="g976">
        <path
           inkscape:connector-curvature="0"
           id="path978"
           style="fill:none;stroke:#ff7415;stroke-width:4;stroke-linecap:butt;stroke-linejoin:miter;stroke-miterlimit:10;stroke-dasharray:none;stroke-opacity:1"
           d="M 0,0 V -24" />
      </g>
      <g
         transform="matrix(0.35277777,0,0,-0.35277777,165.86435,-94.700923)"
         id="g980">
        <path
           inkscape:connector-curvature="0"
           id="path982"
           style="fill:none;stroke:#ff7415;stroke-width:4;stroke-linecap:butt;stroke-linejoin:miter;stroke-miterlimit:10;stroke-dasharray:none;stroke-opacity:1"
           d="M 0,0 H -14" />
      </g>
      <g
         transform="matrix(0.35277777,0,0,-0.35277777,160.92546,-91.878703)"
         id="g984">
        <path
           inkscape:connector-curvature="0"
           id="path986"
           style="fill:none;stroke:#ff7415;stroke-width:4;stroke-linecap:butt;stroke-linejoin:miter;stroke-miterlimit:10;stroke-dasharray:none;stroke-opacity:1"
           d="M 0,0 H 14" />
      </g>
      <g
         transform="matrix(0.35277777,0,0,-0.35277777,175.74213,-100.34537)"
         id="g988">
        <path
           inkscape:connector-curvature="0"
           id="path990"
           style="fill:none;stroke:#ff7415;stroke-width:4;stroke-linecap:butt;stroke-linejoin:miter;stroke-miterlimit:10;stroke-dasharray:none;stroke-opacity:1"
           d="m 0,0 h -16 v 15 c 0,2.2 1.8,4 4,4 h 8 c 2.2,0 4,-1.8 4,-4 z" />
      </g>
      <g
         transform="matrix(0.35277777,0,0,-0.35277777,165.5097,-92.663143)"
         id="g992">
        <path
           inkscape:connector-curvature="0"
           id="path994"
           style="fill:none;stroke:#262626;stroke-width:4;stroke-linecap:butt;stroke-linejoin:miter;stroke-miterlimit:10;stroke-dasharray:none;stroke-opacity:1"
           d="M 0,0 C 4.929,-1.689 8.005,-3.79 8.005,-5.224" />
      </g>
      <g
         transform="matrix(0.35277777,0,0,-0.35277777,157.75029,-93.581103)"
         id="g996">
        <path
           inkscape:connector-curvature="0"
           id="path998"
           style="fill:none;stroke:#262626;stroke-width:4;stroke-linecap:butt;stroke-linejoin:miter;stroke-miterlimit:10;stroke-dasharray:none;stroke-opacity:1"
           d="M 0,0 C 1.472,0.113 2.976,0.174 4.5,0.174 5.688,0.174 6.856,0.137 8,0.067" />
      </g>
      <g
         transform="matrix(0.35277777,0,0,-0.35277777,149.98935,-90.820373)"
         id="g1000">
        <path
           inkscape:connector-curvature="0"
           id="path1002"
           style="fill:none;stroke:#262626;stroke-width:4;stroke-linecap:butt;stroke-linejoin:miter;stroke-miterlimit:10;stroke-dasharray:none;stroke-opacity:1"
           d="M 0,0 C 0,1.184 2.282,2.823 6,4.31" />
      </g>
      <g
         transform="matrix(0.35277777,0,0,-0.35277777,149.98935,-66.125923)"
         id="g1004">
        <path
           inkscape:connector-curvature="0"
           id="path1006"
           style="fill:none;stroke:#262626;stroke-width:4;stroke-linecap:butt;stroke-linejoin:miter;stroke-miterlimit:10;stroke-dasharray:none;stroke-opacity:1"
           d="M 0,0 V 70 C 0,67.239 12.417,62 26.5,62 40.583,62 52,67.239 52,70 V 0 C 52,-2.761 40.583,-8 26.5,-8 12.417,-8 0,-2.761 0,0 Z" />
      </g>
      <g
         transform="matrix(0.35277777,0,0,-0.35277777,157.39768,-87.998143)"
         id="g1008">
        <path
           inkscape:connector-curvature="0"
           id="path1010"
           style="fill:none;stroke:#262626;stroke-width:4;stroke-linecap:butt;stroke-linejoin:miter;stroke-miterlimit:10;stroke-dasharray:none;stroke-opacity:1"
           d="M 0,0 V 33 H -14 V 3" />
      </g>
      <g
         transform="matrix(0.35277777,0,0,-0.35277777,157.39768,-99.639813)"
         id="g1012">
        <path
           inkscape:connector-curvature="0"
           id="path1014"
           style="fill:none;stroke:#262626;stroke-width:4;stroke-linecap:butt;stroke-linejoin:miter;stroke-miterlimit:10;stroke-dasharray:none;stroke-opacity:1"
           d="m 0,0 v 8 c 0,2.2 -1.8,4 -4,4 h -6 c -2.2,0 -4,-1.8 -4,-4 V 0 Z" />
      </g>
      <g
         transform="matrix(0.35277777,0,0,-0.35277777,160.92546,-94.700923)"
         id="g1016">
        <path
           inkscape:connector-curvature="0"
           id="path1018"
           style="fill:none;stroke:#262626;stroke-width:4;stroke-linecap:butt;stroke-linejoin:miter;stroke-miterlimit:10;stroke-dasharray:none;stroke-opacity:1"
           d="M 0,0 V -19" />
      </g>
      <g
         transform="matrix(0.35277777,0,0,-0.35277777,165.86435,-89.056483)"
         id="g1020">
        <path
           inkscape:connector-curvature="0"
           id="path1022"
           style="fill:none;stroke:#262626;stroke-width:4;stroke-linecap:butt;stroke-linejoin:miter;stroke-miterlimit:10;stroke-dasharray:none;stroke-opacity:1"
           d="M 0,0 V 16" />
      </g>
      <g
         transform="matrix(0.35277777,0,0,-0.35277777,165.86435,-94.700923)"
         id="g1024">
        <path
           inkscape:connector-curvature="0"
           id="path1026"
           style="fill:none;stroke:#262626;stroke-width:4;stroke-linecap:butt;stroke-linejoin:miter;stroke-miterlimit:10;stroke-dasharray:none;stroke-opacity:1"
           d="m 0,0 v 8 c 0,2.2 -1.8,4 -4,4 h -6 c -2.2,0 -4,-1.8 -4,-4 V 0" />
      </g>
      <g
         transform="matrix(0.35277777,0,0,-0.35277777,165.51157,-85.175923)"
         id="g1028">
        <path
           inkscape:connector-curvature="0"
           id="path1030"
           style="fill:none;stroke:#262626;stroke-width:4;stroke-linecap:butt;stroke-linejoin:miter;stroke-miterlimit:10;stroke-dasharray:none;stroke-opacity:1"
           d="M 0,0 V -40" />
      </g>
      <g
         transform="matrix(0.35277777,0,0,-0.35277777,165.5115,-67.105973)"
         id="g1032">
        <path
           inkscape:connector-curvature="0"
           id="path1034"
           style="fill:none;stroke:#262626;stroke-width:4;stroke-linecap:butt;stroke-linejoin:miter;stroke-miterlimit:10;stroke-dasharray:none;stroke-opacity:1"
           d="m 0,0 c -4.567,-1.566 -10.725,-2.778 -17.5,-2.778 -7.028,0 -13.641,1.304 -18.503,2.955" />
      </g>
      <g
         transform="matrix(0.35277777,0,0,-0.35277777,168.68657,-66.125923)"
         id="g1036">
        <path
           inkscape:connector-curvature="0"
           id="path1038"
           style="fill:none;stroke:#262626;stroke-width:4;stroke-linecap:butt;stroke-linejoin:miter;stroke-miterlimit:10;stroke-dasharray:none;stroke-opacity:1"
           d="m 0,0 h 47 c 4.4,0 8,3.6 8,8 v 90 c 0,4.4 -3.6,8 -8,8 H 22" />
      </g>
      <g
         transform="matrix(0.35277777,0,0,-0.35277777,169.39213,-103.52037)"
         id="g1040">
        <path
           inkscape:connector-curvature="0"
           id="path1042"
           style="fill:none;stroke:#262626;stroke-width:4;stroke-linecap:butt;stroke-linejoin:miter;stroke-miterlimit:10;stroke-dasharray:none;stroke-opacity:1"
           d="M 0,0 H -22" />
      </g>
      <g
         transform="matrix(0.35277777,0,0,-0.35277777,176.44769,-100.34537)"
         id="g1044">
        <path
           inkscape:connector-curvature="0"
           id="path1046"
           style="fill:none;stroke:#262626;stroke-width:4;stroke-linecap:butt;stroke-linejoin:miter;stroke-miterlimit:10;stroke-dasharray:none;stroke-opacity:1"
           d="m 0,0 h 20 c 2.2,0 4,-1.8 4,-4 v -69 c 0,-2.2 -1.8,-4 -4,-4 h -32 c -1.1,0 -2,-0.9 -2,-2 v -4 c 0,-1.1 0.9,-2 2,-2 h 28 c 2.2,0 4,1.575 4,3.5 v 4.5" />
      </g>
      <g
         transform="matrix(0.35277777,0,0,-0.35277777,169.03935,-96.817593)"
         id="g1048">
        <path
           inkscape:connector-curvature="0"
           id="path1050"
           style="fill:none;stroke:#262626;stroke-width:4;stroke-linecap:butt;stroke-linejoin:miter;stroke-miterlimit:10;stroke-dasharray:none;stroke-opacity:1"
           d="M 0,0 H 35" />
      </g>
      <g
         transform="matrix(0.35277777,0,0,-0.35277777,170.45046,-93.642593)"
         id="g1052">
        <path
           inkscape:connector-curvature="0"
           id="path1054"
           style="fill:none;stroke:#262626;stroke-width:4;stroke-linecap:butt;stroke-linejoin:miter;stroke-miterlimit:10;stroke-dasharray:none;stroke-opacity:1"
           d="M 0,0 H 31" />
      </g>
      <g
         transform="matrix(0.35277777,0,0,-0.35277777,170.45046,-90.467593)"
         id="g1056">
        <path
           inkscape:connector-curvature="0"
           id="path1058"
           style="fill:none;stroke:#262626;stroke-width:4;stroke-linecap:butt;stroke-linejoin:miter;stroke-miterlimit:10;stroke-dasharray:none;stroke-opacity:1"
           d="M 0,0 H 31" />
      </g>
      <g
         transform="matrix(0.35277777,0,0,-0.35277777,170.45046,-87.292593)"
         id="g1060">
        <path
           inkscape:connector-curvature="0"
           id="path1062"
           style="fill:none;stroke:#262626;stroke-width:4;stroke-linecap:butt;stroke-linejoin:miter;stroke-miterlimit:10;stroke-dasharray:none;stroke-opacity:1"
           d="M 0,0 H 31" />
      </g>
      <path
         inkscape:connector-curvature="0"
         id="path1064"
         style="fill:none;stroke:#262626;stroke-width:1.411111;stroke-linecap:butt;stroke-linejoin:miter;stroke-miterlimit:10;stroke-dasharray:none;stroke-opacity:1"
         d="m 171.15602,-84.117593 h 9.525 v 5.99722 h -9.525 z" />
    </g>
  </g>
</svg>
