<?xml version="1.0"?>
<svg xmlns="http://www.w3.org/2000/svg" viewBox="0 0 24 24" enable-background="new 0 0 24 24">
    <path d="M 0 1 L 0 6 L 0 22 L 24 22 L 24 4 L 9 4 L 7.21875 1 L 0 1 z M 2 6 L 22 6 L 22 20 L 2 20 L 2 6 z M 10 8 L 10 9 L 9 9 L 6 10 L 6 17 L 18 17 L 18 9 L 14 9 L 14 8 L 10 8 z M 6.59375 8.4375 L 6.59375 9.3125 L 8.09375 8.78125 L 8.09375 8.4375 L 6.59375 8.4375 z M 12 10 C 13.657 10 15 11.343 15 13 C 15 14.657 13.657 16 12 16 C 10.343 16 9 14.657 9 13 C 9 11.343 10.343 10 12 10 z M 12 11 C 10.895 11 10 11.895 10 13 C 10 14.105 10.895 15 12 15 C 13.105 15 14 14.105 14 13 C 14 11.895 13.105 11 12 11 z"/>
</svg>
