<?xml version="1.0"?>
<svg xmlns="http://www.w3.org/2000/svg" id="Layer_1" data-name="Layer 1" viewBox="0 0 64 64"><title>Icons8 RSL Colored Part 12</title><rect x="5" y="11" width="52" height="46" style="fill:#85cbf8;"/><polygon points="37 39.33 26 39.33 31 45.33 37 39.33" style="fill:#fff;"/><rect x="5" y="11" width="52" height="11" rx="3" ry="3" style="fill:#ace3ff;"/><polygon points="25 34.88 31 28.25 37 34.88 25 34.88" style="fill:#fff;"/><path d="M9,51H53a4,4,0,0,1,4,4v1a1,1,0,0,1-1,1H6a1,1,0,0,1-1-1V55a4,4,0,0,1,4-4Z" style="fill:#ed7899;"/><rect x="13" y="5" width="4" height="12" rx="2" ry="2" style="fill:#ffefb8;"/><rect x="29" y="5" width="4" height="12" rx="2" ry="2" style="fill:#ffefb8;"/><rect x="45" y="5" width="4" height="12" rx="2" ry="2" style="fill:#ffefb8;"/><polygon points="14.5 27 15.74 29.26 18 30.5 15.74 31.74 14.5 34 13.26 31.74 11 30.5 13.26 29.26 14.5 27" style="fill:#9fddff;"/><polygon points="45.42 29 46.27 30.56 47.84 31.42 46.27 32.27 45.42 33.84 44.56 32.27 43 31.42 44.56 30.56 45.42 29" style="fill:#9fddff;"/><polygon points="23.35 43 23.93 44.06 25 44.65 23.93 45.23 23.35 46.3 22.77 45.23 21.7 44.65 22.77 44.06 23.35 43" style="fill:#9fddff;"/><path d="M55,10H50V7a3,3,0,0,0-6,0v3H34V7a3,3,0,0,0-6,0v3H18V7a3,3,0,0,0-6,0v3H7a3,3,0,0,0-3,3V55a3,3,0,0,0,3,3H55a3,3,0,0,0,3-3V13A3,3,0,0,0,55,10ZM46,7a1,1,0,0,1,2,0v8a1,1,0,0,1-2,0V7ZM30,7a1,1,0,0,1,2,0v8a1,1,0,0,1-2,0V7ZM14,7a1,1,0,0,1,2,0v8a1,1,0,0,1-2,0V7ZM55,56H7a1,1,0,0,1-1-1V24a1,1,0,0,0,1-1V21a1,1,0,0,0-1-1V13a1,1,0,0,1,1-1h5v3a3,3,0,0,0,6,0V12H28v3a3,3,0,0,0,6,0V12H44v3a3,3,0,0,0,6,0V12h5a1,1,0,0,1,1,1v7h0a1,1,0,0,0-1,1v2a1,1,0,0,0,1,1h0V55A1,1,0,0,1,55,56Z" style="fill:#8d6c9f;"/><path d="M11,24a1,1,0,0,0,1-1V21a1,1,0,1,0-2,0v2A1,1,0,0,0,11,24Z" style="fill:#8d6c9f;"/><path d="M16,24a1,1,0,0,0,1-1V21a1,1,0,0,0-2,0v2A1,1,0,0,0,16,24Z" style="fill:#8d6c9f;"/><path d="M21,24a1,1,0,0,0,1-1V21a1,1,0,0,0-2,0v2A1,1,0,0,0,21,24Z" style="fill:#8d6c9f;"/><path d="M26,24a1,1,0,0,0,1-1V21a1,1,0,0,0-2,0v2A1,1,0,0,0,26,24Z" style="fill:#8d6c9f;"/><path d="M31,24a1,1,0,0,0,1-1V21a1,1,0,0,0-2,0v2A1,1,0,0,0,31,24Z" style="fill:#8d6c9f;"/><path d="M36,24a1,1,0,0,0,1-1V21a1,1,0,0,0-2,0v2A1,1,0,0,0,36,24Z" style="fill:#8d6c9f;"/><path d="M41,24a1,1,0,0,0,1-1V21a1,1,0,0,0-2,0v2A1,1,0,0,0,41,24Z" style="fill:#8d6c9f;"/><path d="M46,24a1,1,0,0,0,1-1V21a1,1,0,0,0-2,0v2A1,1,0,0,0,46,24Z" style="fill:#8d6c9f;"/><path d="M51,24a1,1,0,0,0,1-1V21a1,1,0,0,0-2,0v2A1,1,0,0,0,51,24Z" style="fill:#8d6c9f;"/><path d="M53,50H9a1,1,0,0,0,0,2H53a1,1,0,0,0,0-2Z" style="fill:#8d6c9f;"/><path d="M25,36H37a1,1,0,0,0,.76-1.65l-6-7a1,1,0,0,0-1.52,0l-6,7A1,1,0,0,0,25,36Zm6-6.46L34.83,34H27.17Z" style="fill:#8d6c9f;"/><path d="M30.24,46.65a1,1,0,0,0,1.52,0l6-7A1,1,0,0,0,37,38H25a1,1,0,0,0-.76,1.65ZM34.83,40,31,44.46,27.17,40Z" style="fill:#8d6c9f;"/></svg>
